<svg xmlns="http://www.w3.org/2000/svg" xmlns:xlink="http://www.w3.org/1999/xlink" width="500" zoomAndPan="magnify" viewBox="0 0 375 374.999991" height="500" preserveAspectRatio="xMidYMid meet" version="1.0"><defs><g/></defs><g fill="#5ce1e6" fill-opacity="1"><g transform="translate(0.0000045, 95.067144)"><g><path d="M 31.28125 -57.140625 C 31.28125 -56.003906 31.457031 -55.070312 31.8125 -54.34375 C 32.164062 -53.613281 32.609375 -53 33.140625 -52.5 C 33.679688 -52 34.257812 -51.585938 34.875 -51.265625 C 35.488281 -50.941406 36.0625 -50.601562 36.59375 -50.25 C 37.125 -49.894531 37.566406 -49.488281 37.921875 -49.03125 C 38.273438 -48.582031 38.453125 -48 38.453125 -47.28125 C 38.453125 -46.09375 38.03125 -45.179688 37.1875 -44.546875 C 36.351562 -43.910156 35.390625 -43.59375 34.296875 -43.59375 C 33.253906 -43.59375 32.285156 -43.914062 31.390625 -44.5625 C 30.503906 -45.21875 29.726562 -46.101562 29.0625 -47.21875 C 28.40625 -48.332031 27.882812 -49.640625 27.5 -51.140625 C 27.113281 -52.648438 26.921875 -54.242188 26.921875 -55.921875 C 26.921875 -57.992188 27.242188 -59.972656 27.890625 -61.859375 C 28.535156 -63.753906 29.488281 -65.421875 30.75 -66.859375 C 32.007812 -68.296875 33.566406 -69.429688 35.421875 -70.265625 C 37.285156 -71.109375 39.414062 -71.53125 41.8125 -71.53125 C 43.425781 -71.53125 45.1875 -71.265625 47.09375 -70.734375 C 49 -70.203125 50.894531 -69.351562 52.78125 -68.1875 C 54.675781 -67.019531 56.503906 -65.515625 58.265625 -63.671875 C 60.035156 -61.835938 61.601562 -59.59375 62.96875 -56.9375 C 64.34375 -54.289062 65.4375 -51.21875 66.25 -47.71875 C 67.0625 -44.226562 67.46875 -40.269531 67.46875 -35.84375 C 67.46875 -30.113281 66.617188 -24.984375 64.921875 -20.453125 C 63.222656 -15.929688 60.925781 -12.09375 58.03125 -8.9375 C 55.132812 -5.789062 51.78125 -3.382812 47.96875 -1.71875 C 44.15625 -0.0507812 40.113281 0.78125 35.84375 0.78125 C 31.601562 0.78125 27.554688 0.0507812 23.703125 -1.40625 C 19.859375 -2.863281 16.472656 -5.085938 13.546875 -8.078125 C 10.628906 -11.066406 8.304688 -14.863281 6.578125 -19.46875 C 4.847656 -24.082031 3.984375 -29.539062 3.984375 -35.84375 C 3.984375 -40.726562 4.632812 -45.171875 5.9375 -49.171875 C 7.25 -53.179688 9.007812 -56.738281 11.21875 -59.84375 C 13.4375 -62.945312 16.015625 -65.554688 18.953125 -67.671875 C 21.898438 -69.796875 25.023438 -71.40625 28.328125 -72.5 L 29.96875 -70.421875 C 29.03125 -69.484375 28.15625 -68.515625 27.34375 -67.515625 C 26.539062 -66.515625 25.800781 -65.375 25.125 -64.09375 C 24.445312 -62.8125 23.835938 -61.335938 23.296875 -59.671875 C 22.765625 -58.015625 22.320312 -56.0625 21.96875 -53.8125 C 21.613281 -51.5625 21.335938 -48.960938 21.140625 -46.015625 C 20.953125 -43.078125 20.859375 -39.6875 20.859375 -35.84375 C 20.859375 -30.863281 21.125 -26.609375 21.65625 -23.078125 C 22.1875 -19.554688 22.878906 -16.609375 23.734375 -14.234375 C 24.597656 -11.859375 25.570312 -9.96875 26.65625 -8.5625 C 27.738281 -7.15625 28.828125 -6.09375 29.921875 -5.375 C 31.023438 -4.664062 32.09375 -4.207031 33.125 -4 C 34.15625 -3.789062 35.0625 -3.6875 35.84375 -3.6875 C 36.613281 -3.6875 37.507812 -3.789062 38.53125 -4 C 39.550781 -4.207031 40.601562 -4.664062 41.6875 -5.375 C 42.769531 -6.09375 43.84375 -7.15625 44.90625 -8.5625 C 45.976562 -9.96875 46.925781 -11.859375 47.75 -14.234375 C 48.570312 -16.609375 49.238281 -19.554688 49.75 -23.078125 C 50.269531 -26.609375 50.53125 -30.863281 50.53125 -35.84375 C 50.53125 -40.207031 50.335938 -44.003906 49.953125 -47.234375 C 49.566406 -50.472656 49.054688 -53.238281 48.421875 -55.53125 C 47.796875 -57.820312 47.070312 -59.703125 46.25 -61.171875 C 45.425781 -62.648438 44.566406 -63.816406 43.671875 -64.671875 C 42.785156 -65.523438 41.894531 -66.113281 41 -66.4375 C 40.113281 -66.769531 39.300781 -66.9375 38.5625 -66.9375 C 37.394531 -66.9375 36.359375 -66.660156 35.453125 -66.109375 C 34.546875 -65.554688 33.785156 -64.816406 33.171875 -63.890625 C 32.554688 -62.972656 32.085938 -61.921875 31.765625 -60.734375 C 31.441406 -59.554688 31.28125 -58.359375 31.28125 -57.140625 Z M 31.28125 -57.140625 "/></g></g></g><g fill="#5ce1e6" fill-opacity="1"><g transform="translate(71.432167, 95.067144)"><g><path d="M 21.046875 -41.125 C 22.242188 -42.84375 23.601562 -44.378906 25.125 -45.734375 C 25.738281 -46.316406 26.425781 -46.878906 27.1875 -47.421875 C 27.945312 -47.972656 28.753906 -48.46875 29.609375 -48.90625 C 30.460938 -49.34375 31.363281 -49.691406 32.3125 -49.953125 C 33.269531 -50.210938 34.253906 -50.34375 35.265625 -50.34375 C 37.429688 -50.34375 39.367188 -49.921875 41.078125 -49.078125 C 42.796875 -48.242188 44.234375 -46.835938 45.390625 -44.859375 C 46.554688 -42.890625 47.445312 -40.28125 48.0625 -37.03125 C 48.675781 -33.78125 48.984375 -29.742188 48.984375 -24.921875 C 48.984375 -20.234375 48.5625 -16.160156 47.71875 -12.703125 C 46.882812 -9.242188 45.785156 -6.300781 44.421875 -3.875 C 43.066406 -1.457031 41.53125 0.515625 39.8125 2.046875 C 38.101562 3.585938 36.375 4.796875 34.625 5.671875 C 32.882812 6.546875 31.203125 7.148438 29.578125 7.484375 C 27.960938 7.828125 26.570312 8.015625 25.40625 8.046875 L 24.921875 6.0625 C 26.378906 5.707031 27.671875 5.046875 28.796875 4.078125 C 29.929688 3.109375 30.882812 1.515625 31.65625 -0.703125 C 32.4375 -2.921875 33.03125 -5.90625 33.4375 -9.65625 C 33.84375 -13.40625 34.046875 -18.238281 34.046875 -24.15625 C 34.046875 -28.226562 33.859375 -31.484375 33.484375 -33.921875 C 33.117188 -36.367188 32.632812 -38.226562 32.03125 -39.5 C 31.4375 -40.78125 30.757812 -41.617188 30 -42.015625 C 29.238281 -42.421875 28.46875 -42.625 27.6875 -42.625 C 26.75 -42.625 25.925781 -42.375 25.21875 -41.875 C 24.507812 -41.375 23.882812 -40.800781 23.34375 -40.15625 C 22.8125 -39.507812 22.359375 -38.863281 21.984375 -38.21875 C 21.617188 -37.570312 21.304688 -37.085938 21.046875 -36.765625 L 21.046875 -4.359375 C 21.046875 -3.941406 20.976562 -3.429688 20.84375 -2.828125 C 20.71875 -2.234375 20.40625 -1.671875 19.90625 -1.140625 C 19.40625 -0.609375 18.660156 -0.15625 17.671875 0.21875 C 16.691406 0.59375 15.34375 0.78125 13.625 0.78125 C 11.914062 0.78125 10.554688 0.578125 9.546875 0.171875 C 8.546875 -0.234375 7.796875 -0.707031 7.296875 -1.25 C 6.796875 -1.800781 6.476562 -2.367188 6.34375 -2.953125 C 6.21875 -3.535156 6.15625 -4.003906 6.15625 -4.359375 L 6.15625 -66.9375 C 6.15625 -67.875 5.9375 -68.6875 5.5 -69.375 C 5.0625 -70.070312 4.328125 -70.421875 3.296875 -70.421875 C 2.742188 -70.421875 2.265625 -70.332031 1.859375 -70.15625 C 1.460938 -69.976562 1.035156 -69.710938 0.578125 -69.359375 L -0.390625 -70.515625 C 0.359375 -71.128906 1.179688 -71.734375 2.078125 -72.328125 C 2.984375 -72.929688 3.976562 -73.457031 5.0625 -73.90625 C 6.144531 -74.363281 7.300781 -74.738281 8.53125 -75.03125 C 9.757812 -75.320312 11.054688 -75.46875 12.421875 -75.46875 C 14.515625 -75.46875 16.144531 -75.179688 17.3125 -74.609375 C 18.476562 -74.046875 19.332031 -73.351562 19.875 -72.53125 C 20.425781 -71.707031 20.757812 -70.832031 20.875 -69.90625 C 20.988281 -68.988281 21.046875 -68.175781 21.046875 -67.46875 Z M 21.046875 -41.125 "/></g></g></g><g fill="#5ce1e6" fill-opacity="1"><g transform="translate(124.387982, 95.067144)"><g><path d="M 47.484375 -4.265625 C 47.484375 -3.847656 47.414062 -3.347656 47.28125 -2.765625 C 47.15625 -2.179688 46.84375 -1.628906 46.34375 -1.109375 C 45.84375 -0.597656 45.085938 -0.15625 44.078125 0.21875 C 43.078125 0.59375 41.722656 0.78125 40.015625 0.78125 C 38.296875 0.78125 36.941406 0.578125 35.953125 0.171875 C 34.972656 -0.234375 34.234375 -0.707031 33.734375 -1.25 C 33.234375 -1.800781 32.914062 -2.367188 32.78125 -2.953125 C 32.65625 -3.535156 32.59375 -4.003906 32.59375 -4.359375 L 32.59375 -38.65625 C 32.59375 -39.101562 32.523438 -39.5625 32.390625 -40.03125 C 32.265625 -40.5 32.070312 -40.925781 31.8125 -41.3125 C 31.550781 -41.707031 31.226562 -42.023438 30.84375 -42.265625 C 30.457031 -42.503906 30.003906 -42.625 29.484375 -42.625 C 28.609375 -42.625 27.75 -42.375 26.90625 -41.875 C 26.070312 -41.375 25.289062 -40.800781 24.5625 -40.15625 C 23.832031 -39.507812 23.203125 -38.863281 22.671875 -38.21875 C 22.140625 -37.570312 21.757812 -37.085938 21.53125 -36.765625 L 21.53125 -4.265625 C 21.53125 -3.847656 21.460938 -3.347656 21.328125 -2.765625 C 21.203125 -2.179688 20.890625 -1.628906 20.390625 -1.109375 C 19.890625 -0.597656 19.144531 -0.15625 18.15625 0.21875 C 17.175781 0.59375 15.828125 0.78125 14.109375 0.78125 C 12.398438 0.78125 11.050781 0.578125 10.0625 0.171875 C 9.070312 -0.234375 8.316406 -0.707031 7.796875 -1.25 C 7.285156 -1.800781 6.960938 -2.367188 6.828125 -2.953125 C 6.703125 -3.535156 6.640625 -4.003906 6.640625 -4.359375 L 6.640625 -41.8125 C 6.640625 -42.75 6.421875 -43.5625 5.984375 -44.25 C 5.546875 -44.945312 4.8125 -45.296875 3.78125 -45.296875 C 3.226562 -45.296875 2.757812 -45.195312 2.375 -45 C 1.988281 -44.8125 1.566406 -44.539062 1.109375 -44.1875 L 0.09375 -45.390625 C 0.84375 -46.003906 1.675781 -46.609375 2.59375 -47.203125 C 3.519531 -47.804688 4.515625 -48.332031 5.578125 -48.78125 C 6.640625 -49.238281 7.785156 -49.613281 9.015625 -49.90625 C 10.242188 -50.195312 11.539062 -50.34375 12.90625 -50.34375 C 15 -50.34375 16.628906 -49.992188 17.796875 -49.296875 C 18.960938 -48.597656 19.816406 -47.765625 20.359375 -46.796875 C 20.910156 -45.828125 21.242188 -44.816406 21.359375 -43.765625 C 21.472656 -42.710938 21.53125 -41.832031 21.53125 -41.125 C 23.050781 -42.84375 24.6875 -44.378906 26.4375 -45.734375 C 27.144531 -46.316406 27.925781 -46.878906 28.78125 -47.421875 C 29.632812 -47.972656 30.515625 -48.46875 31.421875 -48.90625 C 32.328125 -49.34375 33.265625 -49.691406 34.234375 -49.953125 C 35.210938 -50.210938 36.1875 -50.34375 37.15625 -50.34375 C 39.03125 -50.34375 40.628906 -50.003906 41.953125 -49.328125 C 43.273438 -48.648438 44.335938 -47.832031 45.140625 -46.875 C 45.953125 -45.914062 46.546875 -44.910156 46.921875 -43.859375 C 47.296875 -42.816406 47.484375 -41.90625 47.484375 -41.125 C 49.035156 -42.84375 50.664062 -44.378906 52.375 -45.734375 C 53.09375 -46.316406 53.867188 -46.878906 54.703125 -47.421875 C 55.546875 -47.972656 56.425781 -48.46875 57.34375 -48.90625 C 58.269531 -49.34375 59.207031 -49.691406 60.15625 -49.953125 C 61.113281 -50.210938 62.078125 -50.34375 63.046875 -50.34375 C 64.921875 -50.34375 66.519531 -49.992188 67.84375 -49.296875 C 69.175781 -48.597656 70.242188 -47.679688 71.046875 -46.546875 C 71.859375 -45.421875 72.445312 -44.144531 72.8125 -42.71875 C 73.1875 -41.300781 73.375 -39.878906 73.375 -38.453125 L 73.375 -8.4375 C 73.375 -8.144531 73.390625 -7.828125 73.421875 -7.484375 C 73.460938 -7.148438 73.546875 -6.828125 73.671875 -6.515625 C 73.796875 -6.210938 73.992188 -5.960938 74.265625 -5.765625 C 74.546875 -5.578125 74.914062 -5.484375 75.375 -5.484375 C 75.988281 -5.484375 76.535156 -5.703125 77.015625 -6.140625 C 77.503906 -6.578125 77.957031 -7.019531 78.375 -7.46875 L 79.546875 -6.453125 C 79.085938 -5.773438 78.484375 -5.019531 77.734375 -4.1875 C 76.992188 -3.363281 76.113281 -2.582031 75.09375 -1.84375 C 74.082031 -1.101562 72.90625 -0.484375 71.5625 0.015625 C 70.21875 0.523438 68.707031 0.78125 67.03125 0.78125 C 65.601562 0.78125 64.363281 0.59375 63.3125 0.21875 C 62.257812 -0.15625 61.367188 -0.65625 60.640625 -1.28125 C 59.921875 -1.914062 59.378906 -2.660156 59.015625 -3.515625 C 58.660156 -4.367188 58.484375 -5.28125 58.484375 -6.25 L 58.484375 -38.65625 C 58.484375 -39.101562 58.421875 -39.5625 58.296875 -40.03125 C 58.171875 -40.5 57.984375 -40.925781 57.734375 -41.3125 C 57.492188 -41.707031 57.179688 -42.023438 56.796875 -42.265625 C 56.410156 -42.503906 55.957031 -42.625 55.4375 -42.625 C 54.5625 -42.625 53.695312 -42.375 52.84375 -41.875 C 51.988281 -41.375 51.195312 -40.800781 50.46875 -40.15625 C 49.738281 -39.507812 49.113281 -38.863281 48.59375 -38.21875 C 48.082031 -37.570312 47.710938 -37.085938 47.484375 -36.765625 Z M 47.484375 -4.265625 "/></g></g></g><g fill="#5ce1e6" fill-opacity="1"><g transform="translate(204.452124, 95.067144)"><g><path d="M 18.578125 -22.265625 C 18.578125 -21.222656 18.726562 -20.097656 19.03125 -18.890625 C 19.34375 -17.679688 19.789062 -16.460938 20.375 -15.234375 C 20.957031 -14.003906 21.675781 -12.832031 22.53125 -11.71875 C 23.382812 -10.601562 24.367188 -9.609375 25.484375 -8.734375 C 26.597656 -7.859375 27.832031 -7.160156 29.1875 -6.640625 C 30.550781 -6.128906 32.039062 -5.875 33.65625 -5.875 C 34.789062 -5.875 35.84375 -6 36.8125 -6.25 C 37.78125 -6.507812 38.679688 -6.863281 39.515625 -7.3125 C 40.359375 -7.769531 41.164062 -8.296875 41.9375 -8.890625 C 42.71875 -9.492188 43.5 -10.132812 44.28125 -10.8125 L 45.5 -9.65625 C 44.75 -8.644531 43.789062 -7.539062 42.625 -6.34375 C 41.46875 -5.15625 40.0625 -4.035156 38.40625 -2.984375 C 36.757812 -1.929688 34.835938 -1.054688 32.640625 -0.359375 C 30.441406 0.328125 27.9375 0.671875 25.125 0.671875 C 22.3125 0.671875 19.570312 0.164062 16.90625 -0.84375 C 14.238281 -1.863281 11.867188 -3.390625 9.796875 -5.421875 C 7.722656 -7.460938 6.0625 -10.003906 4.8125 -13.046875 C 3.570312 -16.085938 2.953125 -19.644531 2.953125 -23.71875 C 2.953125 -26.65625 3.320312 -29.351562 4.0625 -31.8125 C 4.8125 -34.269531 5.820312 -36.484375 7.09375 -38.453125 C 8.375 -40.429688 9.863281 -42.160156 11.5625 -43.640625 C 13.257812 -45.128906 15.046875 -46.367188 16.921875 -47.359375 C 18.796875 -48.347656 20.710938 -49.09375 22.671875 -49.59375 C 24.628906 -50.09375 26.515625 -50.34375 28.328125 -50.34375 C 30.710938 -50.34375 32.796875 -50.082031 34.578125 -49.5625 C 36.359375 -49.050781 37.835938 -48.359375 39.015625 -47.484375 C 40.191406 -46.609375 41.070312 -45.597656 41.65625 -44.453125 C 42.238281 -43.304688 42.53125 -42.101562 42.53125 -40.84375 C 42.53125 -39.320312 42.09375 -37.953125 41.21875 -36.734375 C 40.351562 -35.523438 39.191406 -34.46875 37.734375 -33.5625 Z M 28.328125 -32.109375 C 28.742188 -32.367188 29.085938 -32.617188 29.359375 -32.859375 C 29.640625 -33.097656 29.859375 -33.382812 30.015625 -33.71875 C 30.179688 -34.0625 30.300781 -34.484375 30.375 -34.984375 C 30.457031 -35.492188 30.5 -36.117188 30.5 -36.859375 C 30.5 -37.671875 30.410156 -38.566406 30.234375 -39.546875 C 30.054688 -40.535156 29.757812 -41.46875 29.34375 -42.34375 C 28.925781 -43.21875 28.390625 -43.941406 27.734375 -44.515625 C 27.085938 -45.097656 26.3125 -45.390625 25.40625 -45.390625 C 24.25 -45.390625 23.253906 -45.039062 22.421875 -44.34375 C 21.597656 -43.65625 20.921875 -42.757812 20.390625 -41.65625 C 19.859375 -40.5625 19.4375 -39.3125 19.125 -37.90625 C 18.820312 -36.5 18.585938 -35.082031 18.421875 -33.65625 C 18.265625 -32.238281 18.171875 -30.875 18.140625 -29.5625 C 18.109375 -28.25 18.09375 -27.140625 18.09375 -26.234375 Z M 28.328125 -32.109375 "/></g></g></g><g fill="#5ce1e6" fill-opacity="1"><g transform="translate(250.424754, 95.067144)"><g><path d="M 3.984375 -30.5 C 3.984375 -33.800781 4.554688 -36.6875 5.703125 -39.15625 C 6.847656 -41.632812 8.390625 -43.707031 10.328125 -45.375 C 12.265625 -47.039062 14.507812 -48.285156 17.0625 -49.109375 C 19.625 -49.929688 22.3125 -50.34375 25.125 -50.34375 C 27.9375 -50.34375 30.601562 -49.96875 33.125 -49.21875 C 35.644531 -48.476562 37.875 -47.332031 39.8125 -45.78125 C 40.425781 -46.71875 40.925781 -47.703125 41.3125 -48.734375 C 41.707031 -49.773438 41.90625 -50.8125 41.90625 -51.84375 C 41.90625 -53.207031 41.539062 -54.289062 40.8125 -55.09375 C 40.082031 -55.90625 39.15625 -56.3125 38.03125 -56.3125 L 38.03125 -57.71875 C 38.738281 -57.9375 39.363281 -58.132812 39.90625 -58.3125 C 40.457031 -58.5 40.957031 -58.640625 41.40625 -58.734375 C 41.863281 -58.828125 42.316406 -58.898438 42.765625 -58.953125 C 43.222656 -59.003906 43.726562 -59.03125 44.28125 -59.03125 C 45.800781 -59.03125 46.960938 -58.5625 47.765625 -57.625 C 48.578125 -56.6875 48.984375 -55.390625 48.984375 -53.734375 C 48.984375 -52.765625 48.753906 -51.800781 48.296875 -50.84375 C 47.847656 -49.894531 47.285156 -48.984375 46.609375 -48.109375 C 45.929688 -47.234375 45.175781 -46.40625 44.34375 -45.625 C 43.519531 -44.851562 42.738281 -44.175781 42 -43.59375 C 43.351562 -42.050781 44.398438 -40.242188 45.140625 -38.171875 C 45.890625 -36.097656 46.265625 -33.738281 46.265625 -31.09375 C 46.265625 -27.757812 45.691406 -24.816406 44.546875 -22.265625 C 43.398438 -19.710938 41.851562 -17.5625 39.90625 -15.8125 C 37.96875 -14.0625 35.722656 -12.742188 33.171875 -11.859375 C 30.617188 -10.972656 27.9375 -10.53125 25.125 -10.53125 C 23.476562 -10.53125 21.859375 -10.671875 20.265625 -10.953125 C 18.679688 -11.242188 17.195312 -11.664062 15.8125 -12.21875 C 15.289062 -11.832031 14.84375 -11.347656 14.46875 -10.765625 C 14.101562 -10.179688 13.921875 -9.535156 13.921875 -8.828125 C 13.921875 -7.628906 14.4375 -6.738281 15.46875 -6.15625 C 16.507812 -5.570312 17.882812 -5.148438 19.59375 -4.890625 C 21.3125 -4.640625 23.25 -4.476562 25.40625 -4.40625 C 27.570312 -4.34375 29.796875 -4.238281 32.078125 -4.09375 C 34.359375 -3.945312 36.582031 -3.671875 38.75 -3.265625 C 40.914062 -2.867188 42.851562 -2.207031 44.5625 -1.28125 C 46.28125 -0.363281 47.65625 0.882812 48.6875 2.46875 C 49.726562 4.050781 50.25 6.109375 50.25 8.640625 C 50.25 10.472656 49.859375 12.125 49.078125 13.59375 C 48.304688 15.070312 47.265625 16.367188 45.953125 17.484375 C 44.640625 18.597656 43.117188 19.550781 41.390625 20.34375 C 39.660156 21.132812 37.832031 21.78125 35.90625 22.28125 C 33.988281 22.78125 32.035156 23.144531 30.046875 23.375 C 28.054688 23.601562 26.15625 23.71875 24.34375 23.71875 C 21.050781 23.71875 18.085938 23.546875 15.453125 23.203125 C 12.816406 22.867188 10.578125 22.34375 8.734375 21.625 C 6.890625 20.914062 5.460938 19.992188 4.453125 18.859375 C 3.453125 17.734375 2.953125 16.378906 2.953125 14.796875 C 2.953125 13.660156 3.210938 12.613281 3.734375 11.65625 C 4.253906 10.707031 4.941406 9.835938 5.796875 9.046875 C 6.648438 8.253906 7.609375 7.539062 8.671875 6.90625 C 9.742188 6.28125 10.832031 5.691406 11.9375 5.140625 C 10.3125 4.460938 8.957031 3.4375 7.875 2.0625 C 6.789062 0.6875 6.25 -1.128906 6.25 -3.390625 C 6.25 -4.585938 6.457031 -5.695312 6.875 -6.71875 C 7.300781 -7.738281 7.84375 -8.675781 8.5 -9.53125 C 9.164062 -10.382812 9.894531 -11.160156 10.6875 -11.859375 C 11.476562 -12.554688 12.25 -13.144531 13 -13.625 C 11.675781 -14.40625 10.453125 -15.351562 9.328125 -16.46875 C 8.210938 -17.582031 7.257812 -18.84375 6.46875 -20.25 C 5.675781 -21.65625 5.0625 -23.210938 4.625 -24.921875 C 4.195312 -26.640625 3.984375 -28.5 3.984375 -30.5 Z M 31.671875 -30.890625 C 31.671875 -32.765625 31.570312 -34.59375 31.375 -36.375 C 31.1875 -38.15625 30.847656 -39.738281 30.359375 -41.125 C 29.878906 -42.519531 29.21875 -43.644531 28.375 -44.5 C 27.53125 -45.351562 26.445312 -45.78125 25.125 -45.78125 C 23.800781 -45.78125 22.71875 -45.332031 21.875 -44.4375 C 21.03125 -43.550781 20.363281 -42.390625 19.875 -40.953125 C 19.394531 -39.515625 19.054688 -37.878906 18.859375 -36.046875 C 18.671875 -34.222656 18.578125 -32.375 18.578125 -30.5 C 18.578125 -28.59375 18.671875 -26.71875 18.859375 -24.875 C 19.054688 -23.03125 19.394531 -21.378906 19.875 -19.921875 C 20.363281 -18.472656 21.03125 -17.300781 21.875 -16.40625 C 22.71875 -15.519531 23.800781 -15.078125 25.125 -15.078125 C 26.445312 -15.078125 27.53125 -15.546875 28.375 -16.484375 C 29.21875 -17.421875 29.878906 -18.640625 30.359375 -20.140625 C 30.847656 -21.648438 31.1875 -23.34375 31.375 -25.21875 C 31.570312 -27.09375 31.671875 -28.984375 31.671875 -30.890625 Z M 39.046875 12.515625 C 39.046875 11.484375 38.640625 10.632812 37.828125 9.96875 C 37.023438 9.300781 35.96875 8.765625 34.65625 8.359375 C 33.34375 7.960938 31.851562 7.65625 30.1875 7.4375 C 28.519531 7.226562 26.828125 7.066406 25.109375 6.953125 C 23.398438 6.847656 21.738281 6.742188 20.125 6.640625 C 18.507812 6.546875 17.101562 6.414062 15.90625 6.25 C 15.226562 6.738281 14.570312 7.265625 13.9375 7.828125 C 13.3125 8.398438 12.765625 9 12.296875 9.625 C 11.828125 10.257812 11.445312 10.921875 11.15625 11.609375 C 10.863281 12.304688 10.71875 13.007812 10.71875 13.71875 C 10.71875 14.945312 11.070312 15.972656 11.78125 16.796875 C 12.5 17.628906 13.460938 18.285156 14.671875 18.765625 C 15.878906 19.253906 17.285156 19.59375 18.890625 19.78125 C 20.492188 19.976562 22.179688 20.078125 23.953125 20.078125 C 26.316406 20.078125 28.4375 19.875 30.3125 19.46875 C 32.1875 19.0625 33.769531 18.507812 35.0625 17.8125 C 36.351562 17.125 37.335938 16.328125 38.015625 15.421875 C 38.703125 14.515625 39.046875 13.546875 39.046875 12.515625 Z M 39.046875 12.515625 "/></g></g></g><g fill="#5ce1e6" fill-opacity="1"><g transform="translate(301.052841, 95.067144)"><g><path d="M 21.046875 -4.265625 C 21.046875 -3.847656 20.972656 -3.347656 20.828125 -2.765625 C 20.679688 -2.179688 20.34375 -1.628906 19.8125 -1.109375 C 19.28125 -0.597656 18.503906 -0.15625 17.484375 0.21875 C 16.460938 0.59375 15.097656 0.78125 13.390625 0.78125 C 11.671875 0.78125 10.328125 0.578125 9.359375 0.171875 C 8.390625 -0.234375 7.671875 -0.707031 7.203125 -1.25 C 6.734375 -1.800781 6.441406 -2.367188 6.328125 -2.953125 C 6.210938 -3.535156 6.15625 -4.003906 6.15625 -4.359375 L 6.15625 -66.9375 C 6.15625 -67.875 5.9375 -68.6875 5.5 -69.375 C 5.0625 -70.070312 4.328125 -70.421875 3.296875 -70.421875 C 2.742188 -70.421875 2.265625 -70.332031 1.859375 -70.15625 C 1.460938 -69.976562 1.035156 -69.710938 0.578125 -69.359375 L -0.390625 -70.515625 C 0.359375 -71.128906 1.179688 -71.734375 2.078125 -72.328125 C 2.984375 -72.929688 3.976562 -73.457031 5.0625 -73.90625 C 6.144531 -74.363281 7.300781 -74.738281 8.53125 -75.03125 C 9.757812 -75.320312 11.054688 -75.46875 12.421875 -75.46875 C 14.515625 -75.46875 16.144531 -75.179688 17.3125 -74.609375 C 18.476562 -74.046875 19.332031 -73.351562 19.875 -72.53125 C 20.425781 -71.707031 20.757812 -70.832031 20.875 -69.90625 C 20.988281 -68.988281 21.046875 -68.175781 21.046875 -67.46875 Z M 21.046875 -4.265625 "/></g></g></g><g fill="#5ce1e6" fill-opacity="1"><g transform="translate(328.258169, 95.067144)"><g><path d="M 18.578125 -22.265625 C 18.578125 -21.222656 18.726562 -20.097656 19.03125 -18.890625 C 19.34375 -17.679688 19.789062 -16.460938 20.375 -15.234375 C 20.957031 -14.003906 21.675781 -12.832031 22.53125 -11.71875 C 23.382812 -10.601562 24.367188 -9.609375 25.484375 -8.734375 C 26.597656 -7.859375 27.832031 -7.160156 29.1875 -6.640625 C 30.550781 -6.128906 32.039062 -5.875 33.65625 -5.875 C 34.789062 -5.875 35.84375 -6 36.8125 -6.25 C 37.78125 -6.507812 38.679688 -6.863281 39.515625 -7.3125 C 40.359375 -7.769531 41.164062 -8.296875 41.9375 -8.890625 C 42.71875 -9.492188 43.5 -10.132812 44.28125 -10.8125 L 45.5 -9.65625 C 44.75 -8.644531 43.789062 -7.539062 42.625 -6.34375 C 41.46875 -5.15625 40.0625 -4.035156 38.40625 -2.984375 C 36.757812 -1.929688 34.835938 -1.054688 32.640625 -0.359375 C 30.441406 0.328125 27.9375 0.671875 25.125 0.671875 C 22.3125 0.671875 19.570312 0.164062 16.90625 -0.84375 C 14.238281 -1.863281 11.867188 -3.390625 9.796875 -5.421875 C 7.722656 -7.460938 6.0625 -10.003906 4.8125 -13.046875 C 3.570312 -16.085938 2.953125 -19.644531 2.953125 -23.71875 C 2.953125 -26.65625 3.320312 -29.351562 4.0625 -31.8125 C 4.8125 -34.269531 5.820312 -36.484375 7.09375 -38.453125 C 8.375 -40.429688 9.863281 -42.160156 11.5625 -43.640625 C 13.257812 -45.128906 15.046875 -46.367188 16.921875 -47.359375 C 18.796875 -48.347656 20.710938 -49.09375 22.671875 -49.59375 C 24.628906 -50.09375 26.515625 -50.34375 28.328125 -50.34375 C 30.710938 -50.34375 32.796875 -50.082031 34.578125 -49.5625 C 36.359375 -49.050781 37.835938 -48.359375 39.015625 -47.484375 C 40.191406 -46.609375 41.070312 -45.597656 41.65625 -44.453125 C 42.238281 -43.304688 42.53125 -42.101562 42.53125 -40.84375 C 42.53125 -39.320312 42.09375 -37.953125 41.21875 -36.734375 C 40.351562 -35.523438 39.191406 -34.46875 37.734375 -33.5625 Z M 28.328125 -32.109375 C 28.742188 -32.367188 29.085938 -32.617188 29.359375 -32.859375 C 29.640625 -33.097656 29.859375 -33.382812 30.015625 -33.71875 C 30.179688 -34.0625 30.300781 -34.484375 30.375 -34.984375 C 30.457031 -35.492188 30.5 -36.117188 30.5 -36.859375 C 30.5 -37.671875 30.410156 -38.566406 30.234375 -39.546875 C 30.054688 -40.535156 29.757812 -41.46875 29.34375 -42.34375 C 28.925781 -43.21875 28.390625 -43.941406 27.734375 -44.515625 C 27.085938 -45.097656 26.3125 -45.390625 25.40625 -45.390625 C 24.25 -45.390625 23.253906 -45.039062 22.421875 -44.34375 C 21.597656 -43.65625 20.921875 -42.757812 20.390625 -41.65625 C 19.859375 -40.5625 19.4375 -39.3125 19.125 -37.90625 C 18.820312 -36.5 18.585938 -35.082031 18.421875 -33.65625 C 18.265625 -32.238281 18.171875 -30.875 18.140625 -29.5625 C 18.109375 -28.25 18.09375 -27.140625 18.09375 -26.234375 Z M 28.328125 -32.109375 "/></g></g></g></svg>