<svg xmlns="http://www.w3.org/2000/svg" xmlns:xlink="http://www.w3.org/1999/xlink" width="500" zoomAndPan="magnify" viewBox="0 0 375 374.999991" height="500" preserveAspectRatio="xMidYMid meet" version="1.0"><defs><g/></defs><g fill="#5ce1e6" fill-opacity="1"><g transform="translate(152.0027, 196.874987)"><g><path d="M 8.71875 -15.921875 C 8.71875 -15.609375 8.765625 -15.347656 8.859375 -15.140625 C 8.960938 -14.941406 9.085938 -14.769531 9.234375 -14.625 C 9.390625 -14.488281 9.550781 -14.375 9.71875 -14.28125 C 9.894531 -14.195312 10.054688 -14.101562 10.203125 -14 C 10.347656 -13.90625 10.46875 -13.796875 10.5625 -13.671875 C 10.664062 -13.546875 10.71875 -13.382812 10.71875 -13.1875 C 10.71875 -12.851562 10.597656 -12.597656 10.359375 -12.421875 C 10.128906 -12.242188 9.863281 -12.15625 9.5625 -12.15625 C 9.269531 -12.15625 9 -12.242188 8.75 -12.421875 C 8.5 -12.597656 8.28125 -12.84375 8.09375 -13.15625 C 7.914062 -13.46875 7.769531 -13.832031 7.65625 -14.25 C 7.550781 -14.675781 7.5 -15.125 7.5 -15.59375 C 7.5 -16.164062 7.585938 -16.710938 7.765625 -17.234375 C 7.953125 -17.765625 8.21875 -18.226562 8.5625 -18.625 C 8.914062 -19.03125 9.351562 -19.347656 9.875 -19.578125 C 10.394531 -19.816406 10.988281 -19.9375 11.65625 -19.9375 C 12.101562 -19.9375 12.59375 -19.863281 13.125 -19.71875 C 13.65625 -19.570312 14.179688 -19.332031 14.703125 -19 C 15.234375 -18.675781 15.742188 -18.257812 16.234375 -17.75 C 16.734375 -17.238281 17.171875 -16.613281 17.546875 -15.875 C 17.929688 -15.132812 18.238281 -14.273438 18.46875 -13.296875 C 18.695312 -12.328125 18.8125 -11.222656 18.8125 -9.984375 C 18.8125 -8.390625 18.570312 -6.960938 18.09375 -5.703125 C 17.625 -4.441406 16.984375 -3.367188 16.171875 -2.484375 C 15.367188 -1.609375 14.4375 -0.9375 13.375 -0.46875 C 12.3125 -0.0078125 11.179688 0.21875 9.984375 0.21875 C 8.804688 0.21875 7.679688 0.015625 6.609375 -0.390625 C 5.535156 -0.796875 4.59375 -1.414062 3.78125 -2.25 C 2.96875 -3.082031 2.316406 -4.140625 1.828125 -5.421875 C 1.347656 -6.710938 1.109375 -8.234375 1.109375 -9.984375 C 1.109375 -11.347656 1.289062 -12.585938 1.65625 -13.703125 C 2.019531 -14.828125 2.507812 -15.820312 3.125 -16.6875 C 3.75 -17.550781 4.46875 -18.273438 5.28125 -18.859375 C 6.101562 -19.453125 6.972656 -19.90625 7.890625 -20.21875 L 8.359375 -19.625 C 8.097656 -19.363281 7.851562 -19.09375 7.625 -18.8125 C 7.394531 -18.539062 7.1875 -18.222656 7 -17.859375 C 6.8125 -17.503906 6.640625 -17.09375 6.484375 -16.625 C 6.335938 -16.164062 6.210938 -15.625 6.109375 -15 C 6.015625 -14.375 5.941406 -13.648438 5.890625 -12.828125 C 5.835938 -12.003906 5.8125 -11.054688 5.8125 -9.984375 C 5.8125 -8.597656 5.882812 -7.414062 6.03125 -6.4375 C 6.1875 -5.457031 6.378906 -4.632812 6.609375 -3.96875 C 6.847656 -3.300781 7.117188 -2.769531 7.421875 -2.375 C 7.722656 -1.988281 8.023438 -1.695312 8.328125 -1.5 C 8.640625 -1.300781 8.941406 -1.171875 9.234375 -1.109375 C 9.523438 -1.054688 9.773438 -1.03125 9.984375 -1.03125 C 10.203125 -1.03125 10.453125 -1.054688 10.734375 -1.109375 C 11.023438 -1.171875 11.320312 -1.300781 11.625 -1.5 C 11.925781 -1.695312 12.222656 -1.988281 12.515625 -2.375 C 12.816406 -2.769531 13.082031 -3.300781 13.3125 -3.96875 C 13.539062 -4.632812 13.726562 -5.457031 13.875 -6.4375 C 14.019531 -7.414062 14.09375 -8.597656 14.09375 -9.984375 C 14.09375 -11.203125 14.035156 -12.257812 13.921875 -13.15625 C 13.816406 -14.0625 13.675781 -14.832031 13.5 -15.46875 C 13.320312 -16.113281 13.117188 -16.640625 12.890625 -17.046875 C 12.660156 -17.460938 12.421875 -17.789062 12.171875 -18.03125 C 11.921875 -18.269531 11.671875 -18.429688 11.421875 -18.515625 C 11.179688 -18.609375 10.957031 -18.65625 10.75 -18.65625 C 10.425781 -18.65625 10.132812 -18.578125 9.875 -18.421875 C 9.625 -18.273438 9.410156 -18.070312 9.234375 -17.8125 C 9.066406 -17.550781 8.9375 -17.253906 8.84375 -16.921875 C 8.757812 -16.597656 8.71875 -16.265625 8.71875 -15.921875 Z M 8.71875 -15.921875 "/></g></g></g><g fill="#5ce1e6" fill-opacity="1"><g transform="translate(171.91099, 196.874987)"><g><path d="M 5.875 -11.46875 C 6.207031 -11.945312 6.582031 -12.375 7 -12.75 C 7.175781 -12.90625 7.367188 -13.0625 7.578125 -13.21875 C 7.785156 -13.375 8.007812 -13.507812 8.25 -13.625 C 8.488281 -13.75 8.738281 -13.847656 9 -13.921875 C 9.269531 -13.992188 9.546875 -14.03125 9.828125 -14.03125 C 10.429688 -14.03125 10.972656 -13.910156 11.453125 -13.671875 C 11.929688 -13.441406 12.332031 -13.050781 12.65625 -12.5 C 12.976562 -11.957031 13.222656 -11.234375 13.390625 -10.328125 C 13.566406 -9.421875 13.65625 -8.296875 13.65625 -6.953125 C 13.65625 -5.640625 13.535156 -4.5 13.296875 -3.53125 C 13.066406 -2.570312 12.757812 -1.753906 12.375 -1.078125 C 12 -0.398438 11.570312 0.148438 11.09375 0.578125 C 10.625 1.003906 10.144531 1.335938 9.65625 1.578125 C 9.164062 1.828125 8.695312 2 8.25 2.09375 C 7.800781 2.1875 7.410156 2.238281 7.078125 2.25 L 6.953125 1.6875 C 7.359375 1.59375 7.71875 1.410156 8.03125 1.140625 C 8.34375 0.867188 8.609375 0.425781 8.828125 -0.1875 C 9.046875 -0.8125 9.207031 -1.644531 9.3125 -2.6875 C 9.425781 -3.738281 9.484375 -5.085938 9.484375 -6.734375 C 9.484375 -7.867188 9.429688 -8.773438 9.328125 -9.453125 C 9.222656 -10.140625 9.085938 -10.660156 8.921875 -11.015625 C 8.753906 -11.367188 8.566406 -11.601562 8.359375 -11.71875 C 8.148438 -11.832031 7.9375 -11.890625 7.71875 -11.890625 C 7.457031 -11.890625 7.226562 -11.816406 7.03125 -11.671875 C 6.832031 -11.535156 6.65625 -11.375 6.5 -11.1875 C 6.351562 -11.007812 6.226562 -10.832031 6.125 -10.65625 C 6.019531 -10.476562 5.9375 -10.34375 5.875 -10.25 L 5.875 -1.21875 C 5.875 -1.101562 5.851562 -0.960938 5.8125 -0.796875 C 5.78125 -0.628906 5.691406 -0.46875 5.546875 -0.3125 C 5.410156 -0.164062 5.203125 -0.0390625 4.921875 0.0625 C 4.648438 0.164062 4.273438 0.21875 3.796875 0.21875 C 3.316406 0.21875 2.9375 0.160156 2.65625 0.046875 C 2.382812 -0.0664062 2.175781 -0.195312 2.03125 -0.34375 C 1.894531 -0.5 1.804688 -0.65625 1.765625 -0.8125 C 1.734375 -0.976562 1.71875 -1.113281 1.71875 -1.21875 L 1.71875 -18.65625 C 1.71875 -18.914062 1.65625 -19.140625 1.53125 -19.328125 C 1.414062 -19.523438 1.210938 -19.625 0.921875 -19.625 C 0.765625 -19.625 0.628906 -19.597656 0.515625 -19.546875 C 0.398438 -19.503906 0.28125 -19.429688 0.15625 -19.328125 L -0.109375 -19.65625 C 0.0976562 -19.820312 0.328125 -19.988281 0.578125 -20.15625 C 0.828125 -20.332031 1.101562 -20.484375 1.40625 -20.609375 C 1.707031 -20.734375 2.03125 -20.832031 2.375 -20.90625 C 2.71875 -20.988281 3.082031 -21.03125 3.46875 -21.03125 C 4.050781 -21.03125 4.503906 -20.953125 4.828125 -20.796875 C 5.148438 -20.640625 5.382812 -20.445312 5.53125 -20.21875 C 5.6875 -19.988281 5.78125 -19.742188 5.8125 -19.484375 C 5.851562 -19.234375 5.875 -19.007812 5.875 -18.8125 Z M 5.875 -11.46875 "/></g></g></g><g fill="#5ce1e6" fill-opacity="1"><g transform="translate(186.669885, 196.874987)"><g><path d="M 13.234375 -1.1875 C 13.234375 -1.070312 13.210938 -0.929688 13.171875 -0.765625 C 13.140625 -0.609375 13.050781 -0.457031 12.90625 -0.3125 C 12.769531 -0.164062 12.5625 -0.0390625 12.28125 0.0625 C 12.007812 0.164062 11.632812 0.21875 11.15625 0.21875 C 10.675781 0.21875 10.296875 0.160156 10.015625 0.046875 C 9.742188 -0.0664062 9.535156 -0.195312 9.390625 -0.34375 C 9.253906 -0.5 9.164062 -0.65625 9.125 -0.8125 C 9.09375 -0.976562 9.078125 -1.113281 9.078125 -1.21875 L 9.078125 -10.78125 C 9.078125 -10.90625 9.0625 -11.03125 9.03125 -11.15625 C 9 -11.289062 8.945312 -11.410156 8.875 -11.515625 C 8.800781 -11.628906 8.707031 -11.71875 8.59375 -11.78125 C 8.488281 -11.851562 8.363281 -11.890625 8.21875 -11.890625 C 7.976562 -11.890625 7.738281 -11.816406 7.5 -11.671875 C 7.269531 -11.535156 7.050781 -11.375 6.84375 -11.1875 C 6.644531 -11.007812 6.46875 -10.832031 6.3125 -10.65625 C 6.164062 -10.476562 6.0625 -10.34375 6 -10.25 L 6 -1.1875 C 6 -1.070312 5.976562 -0.929688 5.9375 -0.765625 C 5.90625 -0.609375 5.816406 -0.457031 5.671875 -0.3125 C 5.535156 -0.164062 5.332031 -0.0390625 5.0625 0.0625 C 4.789062 0.164062 4.414062 0.21875 3.9375 0.21875 C 3.457031 0.21875 3.078125 0.160156 2.796875 0.046875 C 2.523438 -0.0664062 2.316406 -0.195312 2.171875 -0.34375 C 2.023438 -0.5 1.9375 -0.65625 1.90625 -0.8125 C 1.875 -0.976562 1.859375 -1.113281 1.859375 -1.21875 L 1.859375 -11.65625 C 1.859375 -11.914062 1.796875 -12.140625 1.671875 -12.328125 C 1.546875 -12.523438 1.335938 -12.625 1.046875 -12.625 C 0.898438 -12.625 0.769531 -12.597656 0.65625 -12.546875 C 0.550781 -12.492188 0.4375 -12.414062 0.3125 -12.3125 L 0.03125 -12.65625 C 0.238281 -12.820312 0.46875 -12.988281 0.71875 -13.15625 C 0.976562 -13.320312 1.253906 -13.46875 1.546875 -13.59375 C 1.847656 -13.726562 2.171875 -13.832031 2.515625 -13.90625 C 2.859375 -13.988281 3.21875 -14.03125 3.59375 -14.03125 C 4.175781 -14.03125 4.628906 -13.929688 4.953125 -13.734375 C 5.285156 -13.546875 5.523438 -13.316406 5.671875 -13.046875 C 5.828125 -12.773438 5.921875 -12.492188 5.953125 -12.203125 C 5.984375 -11.910156 6 -11.664062 6 -11.46875 C 6.425781 -11.945312 6.882812 -12.375 7.375 -12.75 C 7.570312 -12.90625 7.785156 -13.0625 8.015625 -13.21875 C 8.253906 -13.375 8.5 -13.507812 8.75 -13.625 C 9.007812 -13.75 9.273438 -13.847656 9.546875 -13.921875 C 9.816406 -13.992188 10.085938 -14.03125 10.359375 -14.03125 C 10.878906 -14.03125 11.320312 -13.9375 11.6875 -13.75 C 12.0625 -13.5625 12.359375 -13.332031 12.578125 -13.0625 C 12.804688 -12.800781 12.972656 -12.519531 13.078125 -12.21875 C 13.179688 -11.925781 13.234375 -11.675781 13.234375 -11.46875 C 13.671875 -11.945312 14.125 -12.375 14.59375 -12.75 C 14.789062 -12.90625 15.003906 -13.0625 15.234375 -13.21875 C 15.472656 -13.375 15.722656 -13.507812 15.984375 -13.625 C 16.242188 -13.75 16.503906 -13.847656 16.765625 -13.921875 C 17.035156 -13.992188 17.304688 -14.03125 17.578125 -14.03125 C 18.097656 -14.03125 18.539062 -13.929688 18.90625 -13.734375 C 19.28125 -13.546875 19.578125 -13.289062 19.796875 -12.96875 C 20.023438 -12.65625 20.191406 -12.300781 20.296875 -11.90625 C 20.398438 -11.507812 20.453125 -11.113281 20.453125 -10.71875 L 20.453125 -2.359375 C 20.453125 -2.273438 20.457031 -2.1875 20.46875 -2.09375 C 20.476562 -2 20.5 -1.90625 20.53125 -1.8125 C 20.570312 -1.726562 20.628906 -1.660156 20.703125 -1.609375 C 20.773438 -1.554688 20.878906 -1.53125 21.015625 -1.53125 C 21.179688 -1.53125 21.332031 -1.585938 21.46875 -1.703125 C 21.601562 -1.828125 21.726562 -1.953125 21.84375 -2.078125 L 22.171875 -1.796875 C 22.046875 -1.609375 21.878906 -1.398438 21.671875 -1.171875 C 21.460938 -0.941406 21.21875 -0.722656 20.9375 -0.515625 C 20.65625 -0.304688 20.328125 -0.132812 19.953125 0 C 19.578125 0.144531 19.15625 0.21875 18.6875 0.21875 C 18.289062 0.21875 17.941406 0.164062 17.640625 0.0625 C 17.347656 -0.0390625 17.101562 -0.179688 16.90625 -0.359375 C 16.707031 -0.535156 16.554688 -0.742188 16.453125 -0.984375 C 16.347656 -1.222656 16.296875 -1.476562 16.296875 -1.75 L 16.296875 -10.78125 C 16.296875 -10.90625 16.28125 -11.03125 16.25 -11.15625 C 16.21875 -11.289062 16.164062 -11.410156 16.09375 -11.515625 C 16.03125 -11.628906 15.941406 -11.71875 15.828125 -11.78125 C 15.722656 -11.851562 15.597656 -11.890625 15.453125 -11.890625 C 15.210938 -11.890625 14.972656 -11.816406 14.734375 -11.671875 C 14.492188 -11.535156 14.269531 -11.375 14.0625 -11.1875 C 13.863281 -11.007812 13.691406 -10.832031 13.546875 -10.65625 C 13.398438 -10.476562 13.296875 -10.34375 13.234375 -10.25 Z M 13.234375 -1.1875 "/></g></g></g><g fill="#5ce1e6" fill-opacity="1"><g transform="translate(208.983929, 196.874987)"><g><path d="M 5.171875 -6.203125 C 5.171875 -5.910156 5.210938 -5.597656 5.296875 -5.265625 C 5.390625 -4.929688 5.515625 -4.59375 5.671875 -4.25 C 5.835938 -3.90625 6.039062 -3.578125 6.28125 -3.265625 C 6.519531 -2.953125 6.796875 -2.671875 7.109375 -2.421875 C 7.421875 -2.179688 7.765625 -1.988281 8.140625 -1.84375 C 8.515625 -1.707031 8.925781 -1.640625 9.375 -1.640625 C 9.695312 -1.640625 9.992188 -1.675781 10.265625 -1.75 C 10.535156 -1.820312 10.785156 -1.921875 11.015625 -2.046875 C 11.253906 -2.171875 11.476562 -2.316406 11.6875 -2.484375 C 11.90625 -2.648438 12.125 -2.828125 12.34375 -3.015625 L 12.6875 -2.6875 C 12.476562 -2.40625 12.207031 -2.097656 11.875 -1.765625 C 11.550781 -1.429688 11.160156 -1.117188 10.703125 -0.828125 C 10.242188 -0.535156 9.707031 -0.289062 9.09375 -0.09375 C 8.476562 0.09375 7.78125 0.1875 7 0.1875 C 6.21875 0.1875 5.453125 0.046875 4.703125 -0.234375 C 3.960938 -0.515625 3.300781 -0.9375 2.71875 -1.5 C 2.144531 -2.070312 1.6875 -2.78125 1.34375 -3.625 C 1 -4.476562 0.828125 -5.472656 0.828125 -6.609375 C 0.828125 -7.429688 0.929688 -8.179688 1.140625 -8.859375 C 1.347656 -9.546875 1.628906 -10.164062 1.984375 -10.71875 C 2.335938 -11.269531 2.75 -11.753906 3.21875 -12.171875 C 3.695312 -12.585938 4.195312 -12.929688 4.71875 -13.203125 C 5.238281 -13.472656 5.769531 -13.675781 6.3125 -13.8125 C 6.863281 -13.957031 7.390625 -14.03125 7.890625 -14.03125 C 8.554688 -14.03125 9.140625 -13.957031 9.640625 -13.8125 C 10.140625 -13.664062 10.550781 -13.472656 10.875 -13.234375 C 11.207031 -12.992188 11.453125 -12.710938 11.609375 -12.390625 C 11.773438 -12.066406 11.859375 -11.734375 11.859375 -11.390625 C 11.859375 -10.960938 11.734375 -10.578125 11.484375 -10.234375 C 11.242188 -9.898438 10.921875 -9.609375 10.515625 -9.359375 Z M 7.890625 -8.953125 C 8.015625 -9.023438 8.113281 -9.09375 8.1875 -9.15625 C 8.257812 -9.226562 8.316406 -9.3125 8.359375 -9.40625 C 8.410156 -9.5 8.445312 -9.613281 8.46875 -9.75 C 8.488281 -9.894531 8.5 -10.070312 8.5 -10.28125 C 8.5 -10.5 8.472656 -10.742188 8.421875 -11.015625 C 8.378906 -11.296875 8.296875 -11.554688 8.171875 -11.796875 C 8.054688 -12.046875 7.910156 -12.25 7.734375 -12.40625 C 7.554688 -12.570312 7.335938 -12.65625 7.078125 -12.65625 C 6.753906 -12.65625 6.476562 -12.554688 6.25 -12.359375 C 6.019531 -12.171875 5.832031 -11.921875 5.6875 -11.609375 C 5.539062 -11.304688 5.421875 -10.957031 5.328125 -10.5625 C 5.242188 -10.175781 5.175781 -9.78125 5.125 -9.375 C 5.082031 -8.976562 5.054688 -8.597656 5.046875 -8.234375 C 5.046875 -7.867188 5.046875 -7.5625 5.046875 -7.3125 Z M 7.890625 -8.953125 "/></g></g></g><g fill="#5ce1e6" fill-opacity="1"><g transform="translate(221.796596, 196.874987)"><g><path d="M 1.109375 -8.5 C 1.109375 -9.414062 1.265625 -10.21875 1.578125 -10.90625 C 1.898438 -11.601562 2.332031 -12.179688 2.875 -12.640625 C 3.414062 -13.109375 4.039062 -13.457031 4.75 -13.6875 C 5.46875 -13.914062 6.21875 -14.03125 7 -14.03125 C 7.78125 -14.03125 8.519531 -13.925781 9.21875 -13.71875 C 9.925781 -13.507812 10.550781 -13.191406 11.09375 -12.765625 C 11.269531 -13.023438 11.410156 -13.296875 11.515625 -13.578125 C 11.628906 -13.867188 11.6875 -14.160156 11.6875 -14.453125 C 11.6875 -14.828125 11.582031 -15.128906 11.375 -15.359375 C 11.175781 -15.585938 10.914062 -15.703125 10.59375 -15.703125 L 10.59375 -16.09375 C 10.789062 -16.15625 10.96875 -16.207031 11.125 -16.25 C 11.28125 -16.300781 11.421875 -16.335938 11.546875 -16.359375 C 11.671875 -16.390625 11.796875 -16.410156 11.921875 -16.421875 C 12.046875 -16.441406 12.1875 -16.453125 12.34375 -16.453125 C 12.769531 -16.453125 13.09375 -16.320312 13.3125 -16.0625 C 13.539062 -15.800781 13.65625 -15.441406 13.65625 -14.984375 C 13.65625 -14.710938 13.59375 -14.441406 13.46875 -14.171875 C 13.34375 -13.910156 13.179688 -13.65625 12.984375 -13.40625 C 12.796875 -13.164062 12.585938 -12.9375 12.359375 -12.71875 C 12.128906 -12.5 11.910156 -12.3125 11.703125 -12.15625 C 12.085938 -11.71875 12.378906 -11.210938 12.578125 -10.640625 C 12.785156 -10.066406 12.890625 -9.410156 12.890625 -8.671875 C 12.890625 -7.734375 12.726562 -6.910156 12.40625 -6.203125 C 12.09375 -5.492188 11.664062 -4.894531 11.125 -4.40625 C 10.582031 -3.914062 9.953125 -3.546875 9.234375 -3.296875 C 8.523438 -3.054688 7.78125 -2.9375 7 -2.9375 C 6.539062 -2.9375 6.085938 -2.972656 5.640625 -3.046875 C 5.203125 -3.128906 4.789062 -3.25 4.40625 -3.40625 C 4.257812 -3.300781 4.132812 -3.164062 4.03125 -3 C 3.925781 -2.84375 3.875 -2.660156 3.875 -2.453125 C 3.875 -2.117188 4.019531 -1.867188 4.3125 -1.703125 C 4.601562 -1.546875 4.984375 -1.429688 5.453125 -1.359375 C 5.929688 -1.285156 6.472656 -1.238281 7.078125 -1.21875 C 7.679688 -1.207031 8.300781 -1.179688 8.9375 -1.140625 C 9.570312 -1.097656 10.191406 -1.019531 10.796875 -0.90625 C 11.398438 -0.800781 11.941406 -0.617188 12.421875 -0.359375 C 12.898438 -0.0976562 13.28125 0.25 13.5625 0.6875 C 13.851562 1.132812 14 1.707031 14 2.40625 C 14 2.914062 13.890625 3.375 13.671875 3.78125 C 13.460938 4.195312 13.175781 4.5625 12.8125 4.875 C 12.445312 5.1875 12.019531 5.453125 11.53125 5.671875 C 11.050781 5.890625 10.539062 6.066406 10 6.203125 C 9.46875 6.347656 8.925781 6.453125 8.375 6.515625 C 7.820312 6.578125 7.289062 6.609375 6.78125 6.609375 C 5.863281 6.609375 5.035156 6.5625 4.296875 6.46875 C 3.566406 6.375 2.941406 6.226562 2.421875 6.03125 C 1.910156 5.832031 1.515625 5.570312 1.234375 5.25 C 0.960938 4.9375 0.828125 4.5625 0.828125 4.125 C 0.828125 3.8125 0.894531 3.519531 1.03125 3.25 C 1.175781 2.988281 1.367188 2.742188 1.609375 2.515625 C 1.847656 2.296875 2.113281 2.097656 2.40625 1.921875 C 2.707031 1.742188 3.015625 1.582031 3.328125 1.4375 C 2.878906 1.25 2.503906 0.960938 2.203125 0.578125 C 1.898438 0.191406 1.75 -0.316406 1.75 -0.953125 C 1.75 -1.285156 1.804688 -1.59375 1.921875 -1.875 C 2.035156 -2.15625 2.1875 -2.414062 2.375 -2.65625 C 2.5625 -2.894531 2.765625 -3.109375 2.984375 -3.296875 C 3.203125 -3.492188 3.414062 -3.660156 3.625 -3.796875 C 3.25 -4.015625 2.90625 -4.28125 2.59375 -4.59375 C 2.289062 -4.90625 2.023438 -5.253906 1.796875 -5.640625 C 1.578125 -6.035156 1.40625 -6.472656 1.28125 -6.953125 C 1.164062 -7.429688 1.109375 -7.945312 1.109375 -8.5 Z M 8.828125 -8.609375 C 8.828125 -9.128906 8.800781 -9.640625 8.75 -10.140625 C 8.695312 -10.640625 8.601562 -11.082031 8.46875 -11.46875 C 8.332031 -11.851562 8.144531 -12.164062 7.90625 -12.40625 C 7.675781 -12.644531 7.375 -12.765625 7 -12.765625 C 6.632812 -12.765625 6.332031 -12.640625 6.09375 -12.390625 C 5.863281 -12.140625 5.679688 -11.8125 5.546875 -11.40625 C 5.410156 -11.007812 5.3125 -10.554688 5.25 -10.046875 C 5.195312 -9.535156 5.171875 -9.019531 5.171875 -8.5 C 5.171875 -7.96875 5.195312 -7.445312 5.25 -6.9375 C 5.3125 -6.425781 5.410156 -5.96875 5.546875 -5.5625 C 5.679688 -5.15625 5.863281 -4.828125 6.09375 -4.578125 C 6.332031 -4.328125 6.632812 -4.203125 7 -4.203125 C 7.375 -4.203125 7.675781 -4.332031 7.90625 -4.59375 C 8.144531 -4.851562 8.332031 -5.191406 8.46875 -5.609375 C 8.601562 -6.035156 8.695312 -6.507812 8.75 -7.03125 C 8.800781 -7.550781 8.828125 -8.078125 8.828125 -8.609375 Z M 10.890625 3.484375 C 10.890625 3.203125 10.773438 2.96875 10.546875 2.78125 C 10.316406 2.59375 10.019531 2.441406 9.65625 2.328125 C 9.289062 2.210938 8.875 2.125 8.40625 2.0625 C 7.945312 2.007812 7.476562 1.96875 7 1.9375 C 6.519531 1.90625 6.054688 1.875 5.609375 1.84375 C 5.160156 1.820312 4.769531 1.789062 4.4375 1.75 C 4.25 1.882812 4.066406 2.03125 3.890625 2.1875 C 3.710938 2.34375 3.554688 2.507812 3.421875 2.6875 C 3.296875 2.863281 3.191406 3.046875 3.109375 3.234375 C 3.023438 3.429688 2.984375 3.628906 2.984375 3.828125 C 2.984375 4.171875 3.082031 4.457031 3.28125 4.6875 C 3.476562 4.914062 3.742188 5.097656 4.078125 5.234375 C 4.421875 5.367188 4.816406 5.460938 5.265625 5.515625 C 5.710938 5.566406 6.179688 5.59375 6.671875 5.59375 C 7.335938 5.59375 7.929688 5.535156 8.453125 5.421875 C 8.972656 5.316406 9.410156 5.164062 9.765625 4.96875 C 10.128906 4.769531 10.40625 4.546875 10.59375 4.296875 C 10.789062 4.046875 10.890625 3.773438 10.890625 3.484375 Z M 10.890625 3.484375 "/></g></g></g><g fill="#5ce1e6" fill-opacity="1"><g transform="translate(235.906748, 196.874987)"><g><path d="M 5.875 -1.1875 C 5.875 -1.070312 5.851562 -0.929688 5.8125 -0.765625 C 5.769531 -0.609375 5.671875 -0.457031 5.515625 -0.3125 C 5.367188 -0.164062 5.15625 -0.0390625 4.875 0.0625 C 4.59375 0.164062 4.210938 0.21875 3.734375 0.21875 C 3.253906 0.21875 2.878906 0.160156 2.609375 0.046875 C 2.335938 -0.0664062 2.132812 -0.195312 2 -0.34375 C 1.875 -0.5 1.796875 -0.65625 1.765625 -0.8125 C 1.734375 -0.976562 1.71875 -1.113281 1.71875 -1.21875 L 1.71875 -18.65625 C 1.71875 -18.914062 1.65625 -19.140625 1.53125 -19.328125 C 1.414062 -19.523438 1.210938 -19.625 0.921875 -19.625 C 0.765625 -19.625 0.628906 -19.597656 0.515625 -19.546875 C 0.398438 -19.503906 0.28125 -19.429688 0.15625 -19.328125 L -0.109375 -19.65625 C 0.0976562 -19.820312 0.328125 -19.988281 0.578125 -20.15625 C 0.828125 -20.332031 1.101562 -20.484375 1.40625 -20.609375 C 1.707031 -20.734375 2.03125 -20.832031 2.375 -20.90625 C 2.71875 -20.988281 3.082031 -21.03125 3.46875 -21.03125 C 4.050781 -21.03125 4.503906 -20.953125 4.828125 -20.796875 C 5.148438 -20.640625 5.382812 -20.445312 5.53125 -20.21875 C 5.6875 -19.988281 5.78125 -19.742188 5.8125 -19.484375 C 5.851562 -19.234375 5.875 -19.007812 5.875 -18.8125 Z M 5.875 -1.1875 "/></g></g></g><g fill="#5ce1e6" fill-opacity="1"><g transform="translate(243.488928, 196.874987)"><g><path d="M 5.171875 -6.203125 C 5.171875 -5.910156 5.210938 -5.597656 5.296875 -5.265625 C 5.390625 -4.929688 5.515625 -4.59375 5.671875 -4.25 C 5.835938 -3.90625 6.039062 -3.578125 6.28125 -3.265625 C 6.519531 -2.953125 6.796875 -2.671875 7.109375 -2.421875 C 7.421875 -2.179688 7.765625 -1.988281 8.140625 -1.84375 C 8.515625 -1.707031 8.925781 -1.640625 9.375 -1.640625 C 9.695312 -1.640625 9.992188 -1.675781 10.265625 -1.75 C 10.535156 -1.820312 10.785156 -1.921875 11.015625 -2.046875 C 11.253906 -2.171875 11.476562 -2.316406 11.6875 -2.484375 C 11.90625 -2.648438 12.125 -2.828125 12.34375 -3.015625 L 12.6875 -2.6875 C 12.476562 -2.40625 12.207031 -2.097656 11.875 -1.765625 C 11.550781 -1.429688 11.160156 -1.117188 10.703125 -0.828125 C 10.242188 -0.535156 9.707031 -0.289062 9.09375 -0.09375 C 8.476562 0.09375 7.78125 0.1875 7 0.1875 C 6.21875 0.1875 5.453125 0.046875 4.703125 -0.234375 C 3.960938 -0.515625 3.300781 -0.9375 2.71875 -1.5 C 2.144531 -2.070312 1.6875 -2.78125 1.34375 -3.625 C 1 -4.476562 0.828125 -5.472656 0.828125 -6.609375 C 0.828125 -7.429688 0.929688 -8.179688 1.140625 -8.859375 C 1.347656 -9.546875 1.628906 -10.164062 1.984375 -10.71875 C 2.335938 -11.269531 2.75 -11.753906 3.21875 -12.171875 C 3.695312 -12.585938 4.195312 -12.929688 4.71875 -13.203125 C 5.238281 -13.472656 5.769531 -13.675781 6.3125 -13.8125 C 6.863281 -13.957031 7.390625 -14.03125 7.890625 -14.03125 C 8.554688 -14.03125 9.140625 -13.957031 9.640625 -13.8125 C 10.140625 -13.664062 10.550781 -13.472656 10.875 -13.234375 C 11.207031 -12.992188 11.453125 -12.710938 11.609375 -12.390625 C 11.773438 -12.066406 11.859375 -11.734375 11.859375 -11.390625 C 11.859375 -10.960938 11.734375 -10.578125 11.484375 -10.234375 C 11.242188 -9.898438 10.921875 -9.609375 10.515625 -9.359375 Z M 7.890625 -8.953125 C 8.015625 -9.023438 8.113281 -9.09375 8.1875 -9.15625 C 8.257812 -9.226562 8.316406 -9.3125 8.359375 -9.40625 C 8.410156 -9.5 8.445312 -9.613281 8.46875 -9.75 C 8.488281 -9.894531 8.5 -10.070312 8.5 -10.28125 C 8.5 -10.5 8.472656 -10.742188 8.421875 -11.015625 C 8.378906 -11.296875 8.296875 -11.554688 8.171875 -11.796875 C 8.054688 -12.046875 7.910156 -12.25 7.734375 -12.40625 C 7.554688 -12.570312 7.335938 -12.65625 7.078125 -12.65625 C 6.753906 -12.65625 6.476562 -12.554688 6.25 -12.359375 C 6.019531 -12.171875 5.832031 -11.921875 5.6875 -11.609375 C 5.539062 -11.304688 5.421875 -10.957031 5.328125 -10.5625 C 5.242188 -10.175781 5.175781 -9.78125 5.125 -9.375 C 5.082031 -8.976562 5.054688 -8.597656 5.046875 -8.234375 C 5.046875 -7.867188 5.046875 -7.5625 5.046875 -7.3125 Z M 7.890625 -8.953125 "/></g></g></g></svg>